<svg width="29" height="46" viewBox="0 0 29 46" fill="none" xmlns="http://www.w3.org/2000/svg">
<path d="M19.5795 14.0824L19.5795 14.8068C19.5653 17.2926 19.3452 19.2741 18.919 20.7514C18.4787 22.2287 17.8395 23.4219 17.0014 24.331C16.1634 25.2401 15.1548 26.0639 13.9759 26.8026C13.0952 27.3707 12.3068 27.9602 11.6108 28.571C10.9148 29.1818 10.3608 29.8565 9.94887 30.5952C9.53693 31.348 9.33097 32.1861 9.33097 33.1094C9.33097 34.0895 9.56534 34.9489 10.0341 35.6875C10.5028 36.4261 11.1349 36.9943 11.9304 37.392C12.7116 37.7898 13.5781 37.9886 14.5298 37.9886C15.4531 37.9886 16.3267 37.7827 17.1506 37.3707C17.9744 36.973 18.6491 36.3764 19.1747 35.581C19.7003 34.7997 19.9844 33.8267 20.027 32.6619L28.7202 32.6619C28.6491 35.5028 27.9673 37.8466 26.6747 39.6932C25.3821 41.554 23.6705 42.9389 21.5398 43.848C19.4091 44.7713 17.0582 45.233 14.4872 45.233C11.6605 45.233 9.16051 44.7642 6.98722 43.8267C4.81392 42.9034 3.10938 41.5611 1.87358 39.7997C0.637785 38.0384 0.0198871 35.9148 0.0198873 33.429C0.0198874 31.767 0.296876 30.2898 0.850854 28.9972C1.39063 27.7187 2.15057 26.5824 3.13068 25.5881C4.1108 24.608 5.26847 23.7202 6.6037 22.9247C7.72585 22.2571 8.64915 21.5611 9.37358 20.8366C10.0838 20.1122 10.6165 19.2741 10.9716 18.3224C11.3125 17.3707 11.4901 16.1989 11.5043 14.8068L11.5043 14.0824L19.5795 14.0824ZM15.3608 0.446021C16.7813 0.446021 17.9957 0.943181 19.0043 1.9375C19.9986 2.94602 20.4886 4.15341 20.4744 5.55966C20.4886 6.9517 19.9986 8.14489 19.0043 9.1392C17.9957 10.1335 16.7813 10.6307 15.3608 10.6307C14.0114 10.6307 12.8253 10.1335 11.8026 9.1392C10.7798 8.14488 10.2614 6.9517 10.2472 5.55966C10.2614 4.62216 10.5099 3.76278 10.9929 2.98153C11.4617 2.21449 12.0796 1.59659 12.8466 1.12784C13.6136 0.673294 14.4517 0.446021 15.3608 0.446021Z" fill="#A2AB35"/>
</svg>
