<svg width="29" height="46" viewBox="0 0 29 46" fill="none" xmlns="http://www.w3.org/2000/svg">
<path d="M9.42046 31.9176V31.1932C9.43466 28.7074 9.65483 26.7259 10.081 25.2486C10.5213 23.7713 11.1605 22.5781 11.9986 21.669C12.8366 20.7599 13.8452 19.9361 15.0241 19.1974C15.9048 18.6293 16.6932 18.0398 17.3892 17.429C18.0852 16.8182 18.6392 16.1435 19.0511 15.4048C19.4631 14.652 19.669 13.8139 19.669 12.8906C19.669 11.9105 19.4347 11.0511 18.9659 10.3125C18.4972 9.57386 17.8651 9.00568 17.0696 8.60795C16.2884 8.21023 15.4219 8.01136 14.4702 8.01136C13.5469 8.01136 12.6733 8.21733 11.8494 8.62926C11.0256 9.02699 10.3509 9.62358 9.82528 10.419C9.29972 11.2003 9.01563 12.1733 8.97301 13.3381H0.27983C0.350852 10.4972 1.03267 8.15341 2.32528 6.30682C3.6179 4.44602 5.32955 3.06108 7.46023 2.15199C9.59091 1.22869 11.9418 0.767044 14.5128 0.767044C17.3395 0.767044 19.8395 1.23579 22.0128 2.17329C24.1861 3.09659 25.8906 4.43892 27.1264 6.20028C28.3622 7.96165 28.9801 10.0852 28.9801 12.571C28.9801 14.233 28.7031 15.7102 28.1491 17.0028C27.6094 18.2812 26.8494 19.4176 25.8693 20.4119C24.8892 21.392 23.7315 22.2798 22.3963 23.0753C21.2741 23.7429 20.3509 24.4389 19.6264 25.1634C18.9162 25.8878 18.3835 26.7259 18.0284 27.6776C17.6875 28.6293 17.5099 29.8011 17.4957 31.1932V31.9176H9.42046ZM13.6392 45.554C12.2188 45.554 11.0043 45.0568 9.99574 44.0625C9.00142 43.054 8.51136 41.8466 8.52557 40.4403C8.51136 39.0483 9.00142 37.8551 9.99574 36.8608C11.0043 35.8665 12.2188 35.3693 13.6392 35.3693C14.9886 35.3693 16.1747 35.8665 17.1974 36.8608C18.2202 37.8551 18.7386 39.0483 18.7528 40.4403C18.7386 41.3778 18.4901 42.2372 18.0071 43.0185C17.5384 43.7855 16.9205 44.4034 16.1534 44.8722C15.3864 45.3267 14.5483 45.554 13.6392 45.554Z" fill="#B37416"/>
</svg>
